<?xml version="1.0" standalone="no"?>
<!DOCTYPE svg PUBLIC "-//W3C//DTD SVG 20010904//EN"
 "http://www.w3.org/TR/2001/REC-SVG-20010904/DTD/svg10.dtd">
<svg version="1.0" xmlns="http://www.w3.org/2000/svg"
 width="260.000000pt" height="260.000000pt" viewBox="0 0 260.000000 260.000000"
 preserveAspectRatio="xMidYMid meet">
<metadata>
Created by potrace 1.11, written by Peter Selinger 2001-2013
</metadata>
<g transform="translate(0.000000,260.000000) scale(0.100000,-0.100000)"
fill="#000000" stroke="none">
<path d="M0 1300 l0 -1300 1300 0 1300 0 0 1300 0 1300 -1300 0 -1300 0 0
-1300z m1542 754 c165 -52 264 -119 370 -252 96 -121 163 -281 156 -373 -4
-58 -29 -72 -118 -64 -291 24 -567 301 -587 588 -5 71 -4 80 17 102 30 32 58
32 162 -1z m-348 -3 c11 -12 20 -49 27 -106 16 -147 67 -276 154 -394 145
-197 345 -314 583 -341 99 -11 122 -26 122 -79 0 -42 -53 -176 -101 -257 -44
-74 -169 -199 -243 -243 -82 -49 -215 -101 -257 -101 -20 0 -42 6 -48 14 -7 8
-27 74 -45 148 -62 247 -121 364 -244 479 -110 104 -274 177 -489 219 -57 11
-107 20 -110 20 -11 0 8 98 32 170 72 213 247 393 452 465 84 30 143 32 167 6z
m-449 -837 c165 -41 331 -172 408 -321 47 -90 77 -206 77 -295 l0 -68 -43 0
c-66 0 -190 35 -265 75 -181 95 -329 273 -377 455 -16 58 -20 162 -8 174 10
10 134 -2 208 -20z"/>
</g>
</svg>
