<?xml version="1.0" encoding="UTF-8" standalone="no"?>
<svg width="281px" height="472px" viewBox="0 0 281 472" version="1.1" xmlns="http://www.w3.org/2000/svg" xmlns:xlink="http://www.w3.org/1999/xlink">
    <!-- Generator: Sketch 39.1 (31720) - http://www.bohemiancoding.com/sketch -->
    <title>tennis-player</title>
    <desc>Created with Sketch.</desc>
    <defs></defs>
    <g id="Page-1" stroke="none" stroke-width="1" fill="none" fill-rule="evenodd">
        <g id="tennis-player">
            <g id="Capa_1">
                <g id="Layer_1_12_">
                    <g id="Group">
                        <path d="M270.984,94.414 C262.572,90.604 252.667,94.336 248.858,102.745 L230.735,142.761 C230.735,142.761 186.465,160.734 178.661,163.263 C163.528,168.165 145.536,166.631 117.836,173.978 L65.337,186.93 L28.474,159.409 C35.414,147.363 47.12,127.034 50.047,121.895 C53.214,116.332 60.335,108.81 63.936,105.168 C71.486,106.303 79.452,105.3 87.225,102.239 C99.482,97.414 110.138,87.901 117.23,75.448 C124.315,63.001 127.058,48.982 124.951,35.973 C122.738,22.318 115.511,11.376 104.6,5.163 C98.581,1.738 91.945,0 84.879,0 C79.197,0 73.422,1.14 67.714,3.388 C55.451,8.216 44.796,17.73 37.711,30.177 C30.623,42.622 27.88,56.642 29.987,69.653 C31.32,77.882 34.558,85.304 39.373,91.195 C38.132,96.045 35.383,105.822 32.061,111.656 C29.057,116.928 13.402,144.108 8.258,153.041 L7.907,153.647 C6.679,154.296 5.528,155.141 4.514,156.201 C-0.607,161.545 -0.431,170.032 4.916,175.157 L50.682,219.032 C53.956,222.129 58.627,223.796 63.428,223.054 L65.536,222.728 L110.974,215.728 L123.736,309.795 L90.58,448.468 C88.837,457.684 93.966,467.076 103.067,470.39 C113.184,474.075 124.372,468.861 128.056,458.744 L175.056,343.69 L193.43,382.524 L180.252,449.018 C178.201,459.793 186.779,468.646 197.132,470.281 C208.077,472.008 217.587,464.543 220.074,453.592 L238.967,380.81 C239.447,377.699 239.178,374.345 237.997,371.187 L237.329,369.398 L218.74,319.656 L201.97,197.555 L251.761,175.273 L253.124,174.663 C257.199,172.821 260.554,169.388 262.171,164.842 L279.833,115.248 C282.69,107.158 278.947,98.023 270.984,94.414 L270.984,94.414 Z M51.785,38.193 C59.389,24.837 72.354,16.206 84.816,16.206 C89.087,16.206 93.046,17.228 96.585,19.24 C110.746,27.304 113.691,48.925 103.15,67.437 C95.549,80.792 82.584,89.422 70.12,89.422 C65.849,89.422 61.889,88.401 58.353,86.387 C51.59,82.538 47.153,75.46 45.859,66.458 C44.537,57.266 46.641,47.227 51.785,38.193 L51.785,38.193 Z" id="Shape" fill="#FFFFFF"></path>
                        <path d="M105.009,119.061 C102.464,140.784 118.014,160.449 139.737,162.991 C161.458,165.533 181.127,149.983 183.668,128.261 C186.208,106.541 170.657,86.872 148.936,84.332 C127.214,81.789 107.546,97.339 105.009,119.061 L105.009,119.061 Z" id="Shape" fill="#FFFFFF"></path>
                        <circle id="Oval" fill="#F1E334" cx="244.642" cy="56.285" r="14.961"></circle>
                    </g>
                </g>
            </g>
        </g>
    </g>
</svg>