<?xml version="1.0" encoding="utf-8"?>
<!-- Generator: Adobe Illustrator 19.2.1, SVG Export Plug-In . SVG Version: 6.00 Build 0)  -->
<svg version="1.1" id="Layer_1" xmlns="http://www.w3.org/2000/svg" xmlns:xlink="http://www.w3.org/1999/xlink" x="0px" y="0px"
	 viewBox="0 0 512 512" style="enable-background:new 0 0 512 512;" xml:space="preserve">
<style type="text/css">
	.st0{fill:#F1E334;}
</style>
<path id="ball" class="st0" d="M279.3,196.6c-0.8-0.8-1.7-1.6-2.6-2.3v0c-33.2-32.1-78.9-48.7-125.2-45.4c0,0,0,0,0,0
	c-0.1,0-0.2,0-0.4,0c-0.1,0-0.2,0-0.3,0c-35.7,2.6-68.6,16.4-95.1,39.8c-2.9,2.4-5.5,4.9-8.2,7.5C19.9,224,3.1,260.6,0.2,299.4
	c0,0.1-0.1,0.2-0.1,0.3c0,0.1-0.1,0.3-0.1,0.4c0,0,0,0,0,0s0,0,0,0c0,0,0,0,0,0s0,0,0,0c0,45,12.2,89.7,42.3,122.3
	c1.6,1.9,3.4,3.7,5,5.4c30.8,30.9,72.4,48,115.6,48c4.1,0,8.1-0.2,12.2-0.5c0,0,0.1,0,0.1,0c39.1-2.7,75.9-19.5,103.5-47.1
	c2.9-2.9,5.5-5.6,7.4-7.9c23.7-26.7,37.6-59.7,40.3-95.3c0-0.1,0.2-0.2,0.2-0.2c0-0.1,0.2-0.3,0.2-0.4c0,0,0,0,0,0
	C326.8,276.9,312.9,230.3,279.3,196.6z M62.2,413.1c-1.2-1.2-2.6-2.5-4.1-4.4c-24.5-26.5-37.7-61.7-37.4-97.8
	c38.1-0.2,74.8,14.7,102,41.9c0.6,0.6,1.3,1.3,1.9,2c0.2,0.2,0.4,0.5,0.6,0.7c25.5,26.7,39.4,62.5,39.1,99.4
	C126.1,455.3,89.4,440.3,62.2,413.1z M270.2,406.8c-1.7,2.1-3.6,4.2-6.1,6.6c-21.5,21.5-49.2,35.4-79,39.9
	c-0.1-41.4-16-81.6-44.6-111.8c-1-1.2-2.1-2.3-3.2-3.4c-30.7-30.8-72.1-47.8-115.2-48c4.6-29.7,18.5-57.4,40-78.9
	c2.2-2.1,4.3-4.2,7-6.4c20.6-18.2,45.4-29.7,72.2-33.8c0,43.1,17,84.6,47.7,115.4c1.3,1.3,2.6,2.6,3.9,3.8
	c30.1,28.3,70.1,44.1,111.3,44.2C300.3,361.2,288.7,386,270.2,406.8z M207.2,274.8c-1.2-1-2.2-2.1-3.3-3.1
	c-27.2-27.2-42.1-64.1-41.6-102.2c37.3-0.2,73.4,14.1,100.2,40.2c0.3,0.2,0.5,0.5,0.8,0.7c0.4,0.3,0.7,0.6,1.1,1
	c27.2,27.2,42.1,64,41.7,102.2C269.6,313.8,234,300,207.2,274.8z"/>
<g id="lines">
	<path class="st0" d="M244.4,106.1c2.7,0,5.3-1,7.4-3.1L299,55.8c4.1-4.1,4.1-10.7,0-14.7c-4.1-4.1-10.7-4.1-14.7,0L237,88.3
		c-4.1,4.1-4.1,10.7,0,14.7C239,105,241.7,106.1,244.4,106.1L244.4,106.1z"/>
	<path class="st0" d="M289.9,155.9c2,2,4.7,3.1,7.4,3.1c2.7,0,5.3-1,7.4-3.1l53.3-53.3c4.1-4.1,4.1-10.7,0-14.7
		c-4.1-4.1-10.7-4.1-14.7,0l-53.3,53.3C285.8,145.2,285.8,151.8,289.9,155.9L289.9,155.9z"/>
	<path class="st0" d="M376.2,80.1c2.7,0,5.3-1,7.4-3.1l23-23c4.1-4.1,4.1-10.7,0-14.7c-4.1-4.1-10.7-4.1-14.7,0l-23,23
		c-4.1,4.1-4.1,10.7,0,14.7C370.9,79,373.6,80.1,376.2,80.1L376.2,80.1z"/>
	<path class="st0" d="M508.9,42.9c-4.1-4.1-10.7-4.1-14.7,0L342.9,194.1c-4.1,4.1-4.1,10.7,0,14.7c2,2,4.7,3.1,7.4,3.1
		c2.7,0,5.3-1,7.4-3.1L508.9,57.6C513,53.5,513,46.9,508.9,42.9z"/>
</g>
</svg>
